<svg width="1430" height="729" viewBox="0 0 1430 729" fill="none" xmlns="http://www.w3.org/2000/svg">
<path d="M1194.67 536.826C1185.98 571.128 1161.67 599.789 1125.07 622.233C1088.46 644.679 1039.59 660.887 981.849 670.283C866.369 689.073 715.52 680.595 556.684 640.372C397.848 600.15 261.145 535.81 168.527 464.322C122.217 428.578 86.9488 391.062 65.4383 353.899C43.9294 316.739 36.192 279.964 44.8786 245.661C53.5652 211.359 77.8732 182.698 114.476 160.254C151.081 137.808 199.955 121.6 257.695 112.204C373.175 93.4141 524.024 101.892 682.86 142.115C841.696 182.337 978.399 246.677 1071.02 318.165C1117.33 353.909 1152.59 391.425 1174.11 428.588C1195.61 465.748 1203.35 502.523 1194.67 536.826Z" stroke="url(#paint0_linear_66_1876)"/>
<path d="M1455.27 602.821C1442.63 652.733 1407.27 694.418 1354.05 727.049C1300.83 759.681 1229.79 783.238 1145.88 796.892C978.06 824.199 758.855 811.877 528.054 753.431C297.254 694.984 98.6035 601.491 -35.9941 497.602C-103.294 445.656 -154.56 391.127 -185.833 337.099C-217.104 283.073 -228.368 229.58 -215.728 179.667C-203.088 129.755 -167.722 88.0696 -114.507 55.4391C-61.2891 22.8069 9.75156 -0.750373 93.663 -14.4041C261.484 -41.7113 480.689 -29.3893 711.49 29.0571C942.29 87.5036 1140.94 180.997 1275.54 284.886C1342.84 336.832 1394.1 391.361 1425.38 445.389C1456.65 499.414 1467.91 552.908 1455.27 602.821Z" stroke="url(#paint1_linear_66_1876)"/>
<path d="M1772.38 683.123C1754.93 752.03 1706.11 809.564 1632.68 854.589C1559.25 899.617 1461.23 932.116 1345.48 950.951C1113.97 988.622 811.585 971.622 493.217 891.001C174.849 810.379 -99.1787 681.413 -284.857 538.096C-377.698 466.437 -448.43 391.205 -491.582 316.655C-534.732 242.107 -550.286 168.272 -532.837 99.3645C-515.387 30.4573 -466.565 -27.0761 -393.136 -72.1017C-319.703 -117.129 -221.689 -149.628 -105.933 -168.464C125.578 -206.134 427.96 -189.135 746.328 -108.513C1064.7 -27.8918 1338.72 101.075 1524.4 244.392C1617.24 316.051 1687.98 391.283 1731.13 465.833C1774.28 540.38 1789.83 614.216 1772.38 683.123Z" stroke="url(#paint2_linear_66_1876)"/>
<defs>
<linearGradient id="paint0_linear_66_1876" x1="84.6957" y1="225.795" x2="1080.75" y2="639.025" gradientUnits="userSpaceOnUse">
<stop stop-color="#484848"/>
<stop offset="0.491388" stop-color="#484848" stop-opacity="0.36"/>
<stop offset="1" stop-color="#484848"/>
</linearGradient>
<linearGradient id="paint1_linear_66_1876" x1="-157.657" y1="150.859" x2="1289.55" y2="751.253" gradientUnits="userSpaceOnUse">
<stop stop-color="#484848"/>
<stop offset="0.491388" stop-color="#484848" stop-opacity="0.36"/>
<stop offset="1" stop-color="#484848"/>
</linearGradient>
<linearGradient id="paint2_linear_66_1876" x1="-452.554" y1="59.6755" x2="1543.61" y2="887.813" gradientUnits="userSpaceOnUse">
<stop stop-color="#484848"/>
<stop offset="0.491388" stop-color="#484848" stop-opacity="0.36"/>
<stop offset="1" stop-color="#484848"/>
</linearGradient>
</defs>
</svg>
